IKResults
version=1
nRows=10
nColumns=63
inDegrees=yes

Units are S.I. units (second, meters, Newtons, ...)
If the header above contains a line with 'inDegrees', this indicates whether rotational values are in degrees (yes) or radians (no).

endheader
time	pelvis_tilt	pelvis_list	pelvis_rotation	pelvis_tx	pelvis_ty	pelvis_tz	hip_flexion_r	hip_adduction_r	hip_rotation_r	knee_angle_r	knee_angle_r_beta	ankle_angle_r	subtalar_angle_r	mtp_angle_r	hip_flexion_l	hip_adduction_l	hip_rotation_l	knee_angle_l	knee_angle_l_beta	ankle_angle_l	subtalar_angle_l	mtp_angle_l	L5_S1_Flex_Ext	L5_S1_Lat_Bending	L5_S1_axial_rotation	L4_L5_Flex_Ext	L4_L5_Lat_Bending	L4_L5_axial_rotation	L3_L4_Flex_Ext	L3_L4_Lat_Bending	L3_L4_axial_rotation	L2_L3_Flex_Ext	L2_L3_Lat_Bending	L2_L3_axial_rotation	L1_L2_Flex_Ext	L1_L2_Lat_Bending	L1_L2_axial_rotation	L1_T12_Flex_Ext	L1_T12_Lat_Bending	L1_T12_axial_rotation	Abs_r3	Abs_r2	Abs_r1	Abs_t1	Abs_t2	neck_flexion	neck_bending	neck_rotation	arm_flex_r	arm_add_r	arm_rot_r	elbow_flex_r	pro_sup_r	wrist_flex_r	wrist_dev_r	arm_flex_l	arm_add_l	arm_rot_l	elbow_flex_l	pro_sup_l	wrist_flex_l	wrist_dev_l
      4.03333333	    -22.32096711	      2.54722271	      3.61028840	     -0.83838540	      0.92345858	     -0.21012662	     17.40678340	     -9.27031579	    -13.86308169	      6.12800744	      0.10695391	     14.05112058	     -4.29028748	      0.00000000	     15.43887332	     -2.41315672	     -7.46631843	      5.47197399	      0.09550396	      4.26043086	    -18.08196324	      0.00000000	      3.97973567	     -0.39905069	     -1.62114929	      7.39076711	     -0.53073742	     -1.72247112	      6.53830773	     -0.97025185	     -1.72247112	      4.54843990	     -0.97025185	     -1.41850563	      3.69558254	     -0.81374417	     -1.31718379	      2.27402096	     -0.61812952	     -1.21586196	     28.42685391	     -4.51414124	     -9.01634598	      0.00000000	      0.00000000	     11.23676781	      5.26221605	     -0.76494455	    -10.06797658	     -9.97412810	     37.09617486	     14.08567154	     89.99559364	      0.00000000	      0.00000000	    -20.43052233	    -10.81117043	     -9.71018174	     35.59838722	     89.99559364	      0.00000000	      0.00000000
      4.06666667	    -21.45423661	      2.66432685	      3.46218666	     -0.83493655	      0.92450839	     -0.20876095	     15.98141994	     -9.11302457	    -13.44788205	      5.51057688	      0.09617771	     13.94614659	     -4.59273678	      0.00000000	     13.96547168	     -2.41584726	     -7.51652212	      4.86373585	      0.08488820	      3.79068866	    -18.09768567	      0.00000000	      3.82113958	     -0.35709979	     -2.06904422	      7.09623832	     -0.47494272	     -2.19835948	      6.27775022	     -0.86825243	     -2.19835948	      4.36718043	     -0.86825243	     -1.81041369	      3.54831022	     -0.72819789	     -1.68109843	      2.18339916	     -0.55314757	     -1.55178316	     27.29401792	     -4.03958424	    -11.50740322	      0.00000000	      0.00000000	      9.20782223	      6.43064763	      2.75247243	     -8.70675850	     -9.98568746	     37.77240533	     13.76695923	     89.99559364	      0.00000000	      0.00000000	    -19.17300983	     -9.37975877	    -13.71928905	     35.48537361	     89.99559364	      0.00000000	      0.00000000
      4.10000000	    -21.34379555	      2.83533769	      3.03123881	     -0.83266387	      0.92478979	     -0.20702996	     15.68356179	     -9.02895063	    -13.03447193	      5.24837154	      0.09160136	     13.73670169	     -4.74222817	      0.00000000	     13.40853561	     -2.39755220	     -7.95838457	      4.42202162	      0.07717884	      3.34887414	    -18.09241642	      0.00000000	      3.78290985	     -0.31266725	     -2.43044754	      7.02524187	     -0.41584744	     -2.58235051	      6.21494258	     -0.76021915	     -2.58235051	      4.32348766	     -0.76021915	     -2.12664160	      3.51281008	     -0.63759106	     -1.97473863	      2.16155469	     -0.48432157	     -1.82283566	     27.02094673	     -3.53695447	    -13.51742009	      0.00000000	      0.00000000	      6.68502572	      7.34174730	      6.50664301	     -7.54895445	     -9.95029334	     38.21158258	     13.55047257	     89.99559364	      0.00000000	      0.00000000	    -17.40289232	     -8.57889893	    -15.65782536	     34.81945848	     89.99559364	      0.00000000	      0.00000000
      4.13333333	    -21.23947462	      3.04168728	      2.64639774	     -0.83015111	      0.92490190	     -0.20537447	     15.36580133	     -9.01099526	    -12.61762675	      5.01960566	      0.08760865	     13.52558445	     -4.88034355	      0.00000000	     12.83183763	     -2.32504346	     -8.27975717	      3.95787626	      0.06907797	      3.08106406	    -18.00538957	      0.00000000	      3.76199093	     -0.29441226	     -2.68940054	      6.98639335	     -0.39156830	     -2.85748807	      6.18057489	     -0.71583396	     -2.85748807	      4.29957943	     -0.71583396	     -2.35322547	      3.49338477	     -0.60036548	     -2.18513794	      2.14960161	     -0.45604459	     -2.01705040	     26.87152498	     -3.33045035	    -14.95763896	      0.00000000	      0.00000000	      4.26948103	      8.04815003	      9.02184872	     -6.78276934	     -9.87901406	     38.62308736	     13.65731439	     89.99559364	      0.00000000	      0.00000000	    -15.38628173	     -8.05530541	    -17.47746186	     33.93543195	     89.99559364	      0.00000000	      0.00000000
      4.16666667	    -20.68523549	      3.18191390	      2.17817374	     -0.82723420	      0.92503298	     -0.20328366	     14.48943168	     -8.78253160	    -10.90010393	      4.62266836	      0.08068078	     12.90124134	     -7.11169559	      0.00000000	     11.74270418	     -2.36963715	     -8.61450974	      3.48142707	      0.06076237	      3.03207533	    -17.98178451	      0.00000000	      3.68894880	     -0.30492036	     -2.83287727	      6.85074682	     -0.40554408	     -3.00993210	      6.06057399	     -0.74138336	     -3.00993210	      4.21609959	     -0.74138336	     -2.47876761	      3.42555786	     -0.62179360	     -2.30171278	      2.10786535	     -0.47232164	     -2.12465795	     26.34979240	     -3.44932010	    -15.75561351	      0.00000000	      0.00000000	      2.71424830	      9.01533018	      9.91538904	     -3.34325317	    -10.90363301	     67.92943471	     13.71573314	     89.99559364	      0.00000000	      0.00000000	    -13.67240713	     -7.22971765	    -21.52943438	     33.70272688	     89.99559364	      0.00000000	      0.00000000
      4.20000000	    -20.88322485	      3.21529504	      2.12623680	     -0.82554245	      0.92394614	     -0.20121153	     14.53246980	     -8.65858597	    -10.91882183	      4.56476172	      0.07967012	     12.91686284	     -7.13629917	      0.00000000	     11.74928572	     -2.47584027	     -8.70438641	      3.35251947	      0.05851250	      3.19070656	    -17.98841068	      0.00000000	      3.75615492	     -0.33445948	     -2.83958772	      6.97555531	     -0.44483110	     -3.01706195	      6.17098693	     -0.81320477	     -3.01706195	      4.29290946	     -0.81320477	     -2.48463925	      3.48796546	     -0.68202976	     -2.30716502	      2.14626692	     -0.51807773	     -2.12969079	     26.82983901	     -3.78347248	    -15.79293501	      0.00000000	      0.00000000	      2.55518723	      9.20731488	      9.77491276	     -3.44909790	    -10.55527337	     67.94703369	     13.99726221	     89.99559364	      0.00000000	      0.00000000	    -12.60356569	     -7.41869811	    -21.58584315	     33.73497183	     89.99559364	      0.00000000	      0.00000000
      4.23333333	    -20.35032978	      3.80380089	     -0.00463631	     -0.82133230	      0.92319945	     -0.19685341	     14.07401795	     -8.52359446	     -7.59987554	      4.29309749	      0.07492869	     12.29729606	     -9.37777543	      0.00000000	     10.06002024	     -2.29391899	    -10.41277621	      2.35767560	      0.04114920	      3.14808400	    -17.96270938	      0.00000000	      3.77969785	     -0.42804118	     -2.13985034	      7.01927688	     -0.56929476	     -2.27359098	      6.20966560	     -1.04073932	     -2.27359098	      4.31981667	     -1.04073932	     -1.87236904	      3.50982742	     -0.87286157	     -1.73862840	      2.15971935	     -0.66303578	     -1.60488775	     26.99800377	     -4.84208740	    -11.90120562	      0.00000000	      0.00000000	      3.43653897	     10.52291073	      5.23597115	     -5.27348592	    -10.36654613	     62.57396844	     15.60886507	     89.99559364	      0.00000000	      0.00000000	    -11.31769525	     -7.50604942	    -22.41782935	     32.53645576	     89.99559364	      0.00000000	      0.00000000
      4.26666667	    -20.77023788	      3.86512824	     -0.06184937	     -0.81723189	      0.92118219	     -0.19484620	     13.96770551	     -8.32427331	     -6.25509352	      3.75111518	      0.06546931	     11.61178645	    -11.60144084	      0.00000000	      9.98864118	     -2.35131914	    -10.28251181	      1.99066191	      0.03474360	      3.31632026	    -17.93722641	      0.00000000	      3.96587092	     -0.53076412	     -1.63390568	      7.36501889	     -0.70591629	     -1.73602478	      6.51552934	     -1.29049989	     -1.73602478	      4.53259388	     -1.29049989	     -1.42966747	      3.68270774	     -1.08233420	     -1.32754836	      2.26609865	     -0.82215363	     -1.22542926	     28.32781941	     -6.00410993	     -9.08729321	      0.00000000	      0.00000000	      5.93832126	     10.82824309	      0.27497826	    -10.71437840	     -8.84704756	     34.76533508	     18.40207723	     89.99559364	      0.00000000	      0.00000000	    -11.20858655	     -8.17380355	    -20.21916130	     32.07203636	     89.99559364	      0.00000000	      0.00000000
      4.30000000	    -20.93281377	      3.87081879	     -0.01418216	     -0.81277463	      0.91928647	     -0.19341709	     13.54662370	     -8.17588470	     -5.89774888	      3.23589042	      0.05647694	     11.40059706	    -12.43364610	      0.00000000	      9.61867166	     -2.41242680	     -9.95470848	      1.57902876	      0.02755925	      3.55934692	    -17.96793919	      0.00000000	      4.12052166	     -0.63964695	     -1.09036509	      7.65222077	     -0.85073044	     -1.15851291	      6.76960503	     -1.55523759	     -1.15851291	      4.70934420	     -1.55523759	     -0.95406945	      3.82631641	     -1.30436806	     -0.88592164	      2.35446607	     -0.99081312	     -0.81777382	     29.43247414	     -7.23581420	     -6.06428352	      0.00000000	      0.00000000	      9.26034097	     10.70442106	     -4.98681318	    -13.67433373	     -8.07879257	     29.43903610	     20.31025962	     89.99559364	      0.00000000	      0.00000000	    -11.78294020	     -9.39729842	    -15.98414380	     31.73977567	     89.99559364	      0.00000000	      0.00000000
      4.33333333	    -21.17397028	      3.60900554	      0.74501828	     -0.80779400	      0.91729788	     -0.19355706	     12.88706445	     -7.92335970	     -5.86670702	      2.49961404	      0.04362650	     10.89696089	    -13.93035507	      0.00000000	      9.45846731	     -2.60622296	     -8.87055310	      1.26741228	      0.02212052	      3.85555552	    -18.06522180	      0.00000000	      4.28527538	     -0.74117535	     -0.60261257	      7.95818491	     -0.98576322	     -0.64027586	      7.04027892	     -1.80209375	     -0.64027586	      4.89764123	     -1.80209375	     -0.52728600	      3.97930672	     -1.51140478	     -0.48962271	      2.44860635	     -1.14808062	     -0.45195943	     30.60929350	     -8.38432381	     -3.35155033	      0.00000000	      0.00000000	     12.84581432	      9.73081716	    -10.02921836	    -17.31694771	     -6.74530652	     20.56432562	     22.41085372	     89.99559364	      0.00000000	      0.00000000	    -12.72708436	    -10.73783963	    -11.61934636	     31.44181247	     89.99559364	      0.00000000	      0.00000000
